<svg width="107" height="40" viewBox="0 0 107 40" fill="none" xmlns="http://www.w3.org/2000/svg">
<path d="M62.835 13.368C63.0567 13.368 63.2375 13.4438 63.3775 13.5955C63.5292 13.7355 63.605 13.9163 63.605 14.138C63.605 14.348 63.5292 14.5288 63.3775 14.6805C63.2375 14.8322 63.0567 14.908 62.835 14.908H59.0725V25.408C59.0725 25.6297 58.9967 25.8163 58.845 25.968C58.705 26.108 58.5242 26.178 58.3025 26.178C58.0925 26.178 57.9117 26.108 57.76 25.968C57.6083 25.8163 57.5325 25.6297 57.5325 25.408V14.908H53.77C53.56 14.908 53.3792 14.8322 53.2275 14.6805C53.0758 14.5288 53 14.348 53 14.138C53 13.9163 53.0758 13.7355 53.2275 13.5955C53.3792 13.4438 53.56 13.368 53.77 13.368H62.835Z" fill="#1F2041"/>
<path d="M69.4076 13.368C70.2943 13.368 71.1285 13.5372 71.9101 13.8755C72.7035 14.2138 73.3918 14.6747 73.9751 15.258C74.5701 15.8413 75.0368 16.5297 75.3751 17.323C75.7134 18.1047 75.8826 18.9388 75.8826 19.8255C75.8826 20.8638 75.6609 21.8205 75.2176 22.6955C74.7743 23.5705 74.1735 24.3055 73.4151 24.9005C73.4151 24.9005 73.4035 24.9122 73.3801 24.9355C72.8201 25.3555 72.2076 25.688 71.5426 25.933C70.8776 26.1663 70.166 26.283 69.4076 26.283C68.5209 26.283 67.6868 26.1138 66.9051 25.7755C66.1234 25.4372 65.4351 24.9763 64.8401 24.393C64.2568 23.8097 63.796 23.1272 63.4576 22.3455C63.1193 21.5638 62.9501 20.7238 62.9501 19.8255C62.9501 18.8455 63.1484 17.9413 63.5451 17.113C63.9418 16.273 64.4843 15.5555 65.1726 14.9605L65.2426 14.8905C65.2543 14.8905 65.2718 14.8788 65.2951 14.8555C65.8551 14.3888 66.4851 14.0272 67.1851 13.7705C67.8851 13.5022 68.6259 13.368 69.4076 13.368ZM69.4076 24.743C69.851 24.743 70.271 24.6905 70.6676 24.5855C71.076 24.4688 71.461 24.3113 71.8226 24.113L65.6801 16.6405C65.3068 17.0722 65.0151 17.5622 64.8051 18.1105C64.5951 18.6472 64.4901 19.2188 64.4901 19.8255C64.4901 20.5022 64.6185 21.138 64.8751 21.733C65.1318 22.328 65.4818 22.853 65.9251 23.308C66.3801 23.7513 66.9051 24.1013 67.5001 24.358C68.0951 24.6147 68.731 24.743 69.4076 24.743ZM73.0301 23.1505C73.4384 22.7072 73.7535 22.2055 73.9751 21.6455C74.2085 21.0738 74.3251 20.4672 74.3251 19.8255C74.3251 19.1488 74.1968 18.513 73.9401 17.918C73.6834 17.323 73.3276 16.8038 72.8726 16.3605C72.4293 15.9055 71.9101 15.5497 71.3151 15.293C70.7201 15.0363 70.0843 14.908 69.4076 14.908C68.9409 14.908 68.4918 14.9722 68.0601 15.1005C67.6284 15.2172 67.2259 15.3922 66.8526 15.6255L73.0301 23.1505Z" fill="#1F2041"/>
<path d="M82.851 20.6305C82.6177 20.6305 82.4194 20.5372 82.256 20.3505L77.7585 14.5755C77.6302 14.4122 77.5777 14.2313 77.601 14.033C77.6244 13.823 77.7177 13.6538 77.881 13.5255C78.0444 13.3972 78.2252 13.3505 78.4235 13.3855C78.6335 13.4088 78.8027 13.5022 78.931 13.6655L82.851 18.6705L86.6835 13.753C86.8119 13.5897 86.9752 13.4963 87.1735 13.473C87.3835 13.4497 87.5702 13.5022 87.7335 13.6305C87.8969 13.7588 87.9902 13.928 88.0135 14.138C88.0369 14.3363 87.9844 14.5172 87.856 14.6805L83.446 20.3505C83.2944 20.5372 83.096 20.6305 82.851 20.6305ZM87.7685 26.2655C87.7219 26.2655 87.646 26.2597 87.541 26.248C87.4477 26.2363 87.3369 26.2072 87.2085 26.1605C87.0802 26.1022 86.9402 26.0263 86.7885 25.933C86.6485 25.828 86.5085 25.688 86.3685 25.513L82.851 20.9805L79.0185 25.9155C78.8902 26.0788 78.721 26.1722 78.511 26.1955C78.3127 26.2188 78.1319 26.1663 77.9685 26.038C77.8052 25.9097 77.7119 25.7463 77.6885 25.548C77.6652 25.338 77.7177 25.1513 77.846 24.988L82.256 19.318C82.396 19.1313 82.5885 19.038 82.8335 19.038C83.0902 19.038 83.2944 19.1313 83.446 19.318L87.541 24.568C87.5994 24.6497 87.6519 24.7022 87.6985 24.7255C87.7452 24.7488 87.7802 24.7663 87.8035 24.778C88.0019 24.778 88.1652 24.848 88.2935 24.988C88.4335 25.1163 88.5094 25.2797 88.521 25.478C88.5444 25.688 88.486 25.8688 88.346 26.0205C88.206 26.1722 88.031 26.2538 87.821 26.2655H87.7685Z" fill="#1F2041"/>
<path d="M92.2343 26.2655C92.0126 26.2655 91.826 26.1897 91.6743 26.038C91.5226 25.8863 91.4468 25.6997 91.4468 25.478V14.103C91.4468 13.893 91.5226 13.7122 91.6743 13.5605C91.826 13.4088 92.0126 13.333 92.2343 13.333C92.4443 13.333 92.6251 13.4088 92.7768 13.5605C92.9285 13.7122 93.0043 13.893 93.0043 14.103V25.478C93.0043 25.6997 92.9285 25.8863 92.7768 26.038C92.6251 26.1897 92.4443 26.2655 92.2343 26.2655Z" fill="#1F2041"/>
<path d="M105.438 26.2305C105.181 26.2305 104.983 26.1313 104.843 25.933L97.5452 16.343V25.478C97.5452 25.688 97.4693 25.8688 97.3177 26.0205C97.1777 26.1605 97.0027 26.2305 96.7927 26.2305C96.5943 26.2305 96.4193 26.1605 96.2677 26.0205C96.116 25.8688 96.0402 25.688 96.0402 25.478V14.1205C96.0402 13.9572 96.0868 13.8113 96.1802 13.683C96.2735 13.5547 96.4018 13.4672 96.5652 13.4205C96.7168 13.3622 96.8685 13.3563 97.0202 13.403C97.1718 13.4497 97.3002 13.5372 97.4052 13.6655L104.685 23.273V14.1205C104.685 13.9222 104.755 13.7472 104.895 13.5955C105.047 13.4438 105.228 13.368 105.438 13.368C105.648 13.368 105.823 13.4438 105.963 13.5955C106.114 13.7472 106.19 13.9222 106.19 14.1205V25.478C106.19 25.6413 106.143 25.7872 106.05 25.9155C105.957 26.0438 105.834 26.1372 105.683 26.1955C105.566 26.2188 105.484 26.2305 105.438 26.2305Z" fill="#1F2041"/>
<path d="M20.0003 27.0587C19.3533 27.0587 18.8239 26.5292 18.8239 25.8822C18.8239 21.3528 15.118 17.6469 10.5886 17.6469C9.94152 17.6469 9.41211 17.1175 9.41211 16.4704C9.41211 15.8234 9.94152 15.2939 10.5886 15.2939C16.4415 15.2939 21.1768 20.0292 21.1768 25.8822C21.1768 26.5292 20.6474 27.0587 20.0003 27.0587Z" fill="url(#paint0_linear)"/>
<path d="M30.5884 16.4704C30.5884 17.1175 30.0589 17.6469 29.4119 17.6469C26.6178 17.6469 24.1178 19.0587 22.6472 21.2057C22.3236 20.3822 21.9413 19.6175 21.4707 18.9116C23.4119 16.6763 26.2648 15.2939 29.4119 15.2939C30.0589 15.2939 30.5884 15.8234 30.5884 16.4704Z" fill="url(#paint1_linear)"/>
<path d="M20 40C8.97059 40 0 31.0294 0 20C0 8.97059 8.97059 0 20 0C31.0294 0 40 8.97059 40 20C40 31.0294 31.0294 40 20 40ZM20 2.35294C10.2647 2.35294 2.35294 10.2647 2.35294 20C2.35294 29.7353 10.2647 37.6471 20 37.6471C29.7353 37.6471 37.6471 29.7353 37.6471 20C37.6471 10.2647 29.7353 2.35294 20 2.35294Z" fill="url(#paint2_linear)"/>
<defs>
<linearGradient id="paint0_linear" x1="15.2945" y1="15.2939" x2="15.2945" y2="27.0587" gradientUnits="userSpaceOnUse">
<stop stop-color="#BC9CFF"/>
<stop offset="1" stop-color="#8BA4F9"/>
</linearGradient>
<linearGradient id="paint1_linear" x1="26.0295" y1="15.2939" x2="26.0295" y2="21.2057" gradientUnits="userSpaceOnUse">
<stop stop-color="#6FCF97"/>
<stop offset="1" stop-color="#66D2EA"/>
</linearGradient>
<linearGradient id="paint2_linear" x1="20" y1="0" x2="20" y2="40" gradientUnits="userSpaceOnUse">
<stop stop-color="#BC9CFF"/>
<stop offset="1" stop-color="#8BA4F9"/>
</linearGradient>
</defs>
</svg>
