<?xml version="1.0" encoding="utf-8"?>
<svg width="73" height="12" viewBox="0 0 73 12" fill="none" xmlns="http://www.w3.org/2000/svg">
  <defs/>
  <path fill-rule="evenodd" clip-rule="evenodd" d="M6.5 9.644L10.517 12 9.451 7.56 13 4.573l-4.674-.386L6.5 0 4.673 4.187 0 4.573 3.549 7.56 2.483 12 6.5 9.644zM21.5 9.644L25.517 12l-1.066-4.44L28 4.573l-4.674-.386L21.5 0l-1.826 4.187L15 4.573l3.549 2.987L17.483 12 21.5 9.644zM36.5 9.644L40.517 12l-1.066-4.44L43 4.573l-4.673-.386L36.5 0l-1.827 4.187L30 4.573l3.549 2.987L32.483 12 36.5 9.644zM51.5 9.644L55.517 12l-1.066-4.44L58 4.573l-4.673-.386L51.5 0l-1.827 4.187L45 4.573l3.549 2.987L47.483 12 51.5 9.644zM66.5 9.644L70.517 12l-1.066-4.44L73 4.573l-4.674-.386L66.5 0l-1.826 4.187L60 4.573l3.549 2.987L62.483 12 66.5 9.644z" fill="#C7C7C7" style="fill-opacity: 0;"/>
  <path d="M 12.968 4.605 L 8.283 4.215 L 6.452 0.046 L 4.622 4.221 L -0.064 4.605 L 3.494 7.584 L 2.425 12.011 L 6.452 9.662 L 10.479 12.011 L 9.416 7.584 L 12.968 4.605 Z M 6.452 8.484 L 4.002 9.914 L 4.654 7.219 L 2.49 5.405 L 5.345 5.166 L 6.452 2.628 L 7.566 5.171 L 10.42 5.412 L 8.257 7.225 L 8.908 9.92 L 6.452 8.484 Z" style="fill: rgb(188, 156, 255);"/>
  <path d="M 28.016 4.644 L 23.331 4.254 L 21.5 0.085 L 19.67 4.26 L 14.984 4.644 L 18.542 7.623 L 17.473 12.05 L 21.5 9.701 L 25.527 12.05 L 24.464 7.623 L 28.016 4.644 Z M 21.5 8.523 L 19.05 9.953 L 19.702 7.258 L 17.538 5.444 L 20.393 5.205 L 21.5 2.667 L 22.614 5.21 L 25.468 5.451 L 23.305 7.264 L 23.956 9.959 L 21.5 8.523 Z" style="fill: rgb(188, 156, 255);"/>
  <path d="M 43.025 4.711 L 38.34 4.321 L 36.509 0.152 L 34.679 4.327 L 29.993 4.711 L 33.551 7.69 L 32.482 12.117 L 36.509 9.768 L 40.536 12.117 L 39.473 7.69 L 43.025 4.711 Z M 36.509 8.59 L 34.059 10.02 L 34.711 7.325 L 32.547 5.511 L 35.402 5.272 L 36.509 2.734 L 37.623 5.277 L 40.477 5.518 L 38.314 7.331 L 38.965 10.026 L 36.509 8.59 Z" style="fill: rgb(188, 156, 255);"/>
  <path d="M 58.034 4.54 L 53.349 4.15 L 51.518 -0.019 L 49.688 4.156 L 45.002 4.54 L 48.56 7.519 L 47.491 11.946 L 51.518 9.597 L 55.545 11.946 L 54.482 7.519 L 58.034 4.54 Z M 51.518 8.419 L 49.068 9.849 L 49.72 7.154 L 47.556 5.34 L 50.411 5.101 L 51.518 2.563 L 52.632 5.106 L 55.486 5.347 L 53.323 7.16 L 53.974 9.855 L 51.518 8.419 Z" style="fill: rgb(188, 156, 255);"/>
  <path d="M 73.042 4.652 L 68.357 4.262 L 66.526 0.093 L 64.696 4.268 L 60.01 4.652 L 63.568 7.631 L 62.499 12.058 L 66.526 9.709 L 70.553 12.058 L 69.49 7.631 L 73.042 4.652 Z M 66.526 8.531 L 64.076 9.961 L 64.728 7.266 L 62.564 5.452 L 65.419 5.213 L 66.526 2.675 L 67.64 5.218 L 70.494 5.459 L 68.331 7.272 L 68.982 9.967 L 66.526 8.531 Z" style="fill: rgb(188, 156, 255);"/>
</svg>