<svg width="115" height="48" viewBox="0 0 115 48" fill="none" xmlns="http://www.w3.org/2000/svg">
<g filter="url(#filter0_d)">
<path d="M66.835 13.368C67.0567 13.368 67.2375 13.4438 67.3775 13.5955C67.5292 13.7355 67.605 13.9163 67.605 14.138C67.605 14.348 67.5292 14.5288 67.3775 14.6805C67.2375 14.8322 67.0567 14.908 66.835 14.908H63.0725V25.408C63.0725 25.6297 62.9967 25.8163 62.845 25.968C62.705 26.108 62.5242 26.178 62.3025 26.178C62.0925 26.178 61.9117 26.108 61.76 25.968C61.6083 25.8163 61.5325 25.6297 61.5325 25.408V14.908H57.77C57.56 14.908 57.3792 14.8322 57.2275 14.6805C57.0758 14.5288 57 14.348 57 14.138C57 13.9163 57.0758 13.7355 57.2275 13.5955C57.3792 13.4438 57.56 13.368 57.77 13.368H66.835Z" fill="#1F2041"/>
<path d="M73.4076 13.368C74.2943 13.368 75.1285 13.5372 75.9101 13.8755C76.7035 14.2138 77.3918 14.6747 77.9751 15.258C78.5701 15.8413 79.0368 16.5297 79.3751 17.323C79.7134 18.1047 79.8826 18.9388 79.8826 19.8255C79.8826 20.8638 79.6609 21.8205 79.2176 22.6955C78.7743 23.5705 78.1735 24.3055 77.4151 24.9005C77.4151 24.9005 77.4035 24.9122 77.3801 24.9355C76.8201 25.3555 76.2076 25.688 75.5426 25.933C74.8776 26.1663 74.166 26.283 73.4076 26.283C72.5209 26.283 71.6868 26.1138 70.9051 25.7755C70.1234 25.4372 69.4351 24.9763 68.8401 24.393C68.2568 23.8097 67.796 23.1272 67.4576 22.3455C67.1193 21.5638 66.9501 20.7238 66.9501 19.8255C66.9501 18.8455 67.1484 17.9413 67.5451 17.113C67.9418 16.273 68.4843 15.5555 69.1726 14.9605L69.2426 14.8905C69.2543 14.8905 69.2718 14.8788 69.2951 14.8555C69.8551 14.3888 70.4851 14.0272 71.1851 13.7705C71.8851 13.5022 72.6259 13.368 73.4076 13.368ZM73.4076 24.743C73.851 24.743 74.271 24.6905 74.6676 24.5855C75.076 24.4688 75.461 24.3113 75.8226 24.113L69.6801 16.6405C69.3068 17.0722 69.0151 17.5622 68.8051 18.1105C68.5951 18.6472 68.4901 19.2188 68.4901 19.8255C68.4901 20.5022 68.6185 21.138 68.8751 21.733C69.1318 22.328 69.4818 22.853 69.9251 23.308C70.3801 23.7513 70.9051 24.1013 71.5001 24.358C72.0951 24.6147 72.731 24.743 73.4076 24.743ZM77.0301 23.1505C77.4384 22.7072 77.7535 22.2055 77.9751 21.6455C78.2085 21.0738 78.3251 20.4672 78.3251 19.8255C78.3251 19.1488 78.1968 18.513 77.9401 17.918C77.6834 17.323 77.3276 16.8038 76.8726 16.3605C76.4293 15.9055 75.9101 15.5497 75.3151 15.293C74.7201 15.0363 74.0843 14.908 73.4076 14.908C72.9409 14.908 72.4918 14.9722 72.0601 15.1005C71.6284 15.2172 71.2259 15.3922 70.8526 15.6255L77.0301 23.1505Z" fill="#1F2041"/>
<path d="M86.851 20.6305C86.6177 20.6305 86.4194 20.5372 86.256 20.3505L81.7585 14.5755C81.6302 14.4122 81.5777 14.2313 81.601 14.033C81.6244 13.823 81.7177 13.6538 81.881 13.5255C82.0444 13.3972 82.2252 13.3505 82.4235 13.3855C82.6335 13.4088 82.8027 13.5022 82.931 13.6655L86.851 18.6705L90.6835 13.753C90.8119 13.5897 90.9752 13.4963 91.1735 13.473C91.3835 13.4497 91.5702 13.5022 91.7335 13.6305C91.8969 13.7588 91.9902 13.928 92.0135 14.138C92.0369 14.3363 91.9844 14.5172 91.856 14.6805L87.446 20.3505C87.2944 20.5372 87.096 20.6305 86.851 20.6305ZM91.7685 26.2655C91.7219 26.2655 91.646 26.2597 91.541 26.248C91.4477 26.2363 91.3369 26.2072 91.2085 26.1605C91.0802 26.1022 90.9402 26.0263 90.7885 25.933C90.6485 25.828 90.5085 25.688 90.3685 25.513L86.851 20.9805L83.0185 25.9155C82.8902 26.0788 82.721 26.1722 82.511 26.1955C82.3127 26.2188 82.1319 26.1663 81.9685 26.038C81.8052 25.9097 81.7119 25.7463 81.6885 25.548C81.6652 25.338 81.7177 25.1513 81.846 24.988L86.256 19.318C86.396 19.1313 86.5885 19.038 86.8335 19.038C87.0902 19.038 87.2944 19.1313 87.446 19.318L91.541 24.568C91.5994 24.6497 91.6519 24.7022 91.6985 24.7255C91.7452 24.7488 91.7802 24.7663 91.8035 24.778C92.0019 24.778 92.1652 24.848 92.2935 24.988C92.4335 25.1163 92.5094 25.2797 92.521 25.478C92.5444 25.688 92.486 25.8688 92.346 26.0205C92.206 26.1722 92.031 26.2538 91.821 26.2655H91.7685Z" fill="#1F2041"/>
<path d="M96.2343 26.2655C96.0126 26.2655 95.826 26.1897 95.6743 26.038C95.5226 25.8863 95.4468 25.6997 95.4468 25.478V14.103C95.4468 13.893 95.5226 13.7122 95.6743 13.5605C95.826 13.4088 96.0126 13.333 96.2343 13.333C96.4443 13.333 96.6251 13.4088 96.7768 13.5605C96.9285 13.7122 97.0043 13.893 97.0043 14.103V25.478C97.0043 25.6997 96.9285 25.8863 96.7768 26.038C96.6251 26.1897 96.4443 26.2655 96.2343 26.2655Z" fill="#1F2041"/>
<path d="M109.438 26.2305C109.181 26.2305 108.983 26.1313 108.843 25.933L101.545 16.343V25.478C101.545 25.688 101.469 25.8688 101.318 26.0205C101.178 26.1605 101.003 26.2305 100.793 26.2305C100.594 26.2305 100.419 26.1605 100.268 26.0205C100.116 25.8688 100.04 25.688 100.04 25.478V14.1205C100.04 13.9572 100.087 13.8113 100.18 13.683C100.273 13.5547 100.402 13.4672 100.565 13.4205C100.717 13.3622 100.869 13.3563 101.02 13.403C101.172 13.4497 101.3 13.5372 101.405 13.6655L108.685 23.273V14.1205C108.685 13.9222 108.755 13.7472 108.895 13.5955C109.047 13.4438 109.228 13.368 109.438 13.368C109.648 13.368 109.823 13.4438 109.963 13.5955C110.114 13.7472 110.19 13.9222 110.19 14.1205V25.478C110.19 25.6413 110.143 25.7872 110.05 25.9155C109.957 26.0438 109.834 26.1372 109.683 26.1955C109.566 26.2188 109.484 26.2305 109.438 26.2305Z" fill="#1F2041"/>
<path d="M24.0003 27.0587C23.3533 27.0587 22.8239 26.5292 22.8239 25.8822C22.8239 21.3528 19.118 17.6469 14.5886 17.6469C13.9415 17.6469 13.4121 17.1175 13.4121 16.4704C13.4121 15.8234 13.9415 15.2939 14.5886 15.2939C20.4415 15.2939 25.1768 20.0292 25.1768 25.8822C25.1768 26.5292 24.6474 27.0587 24.0003 27.0587Z" fill="url(#paint0_linear)"/>
<path d="M34.5884 16.4704C34.5884 17.1175 34.0589 17.6469 33.4119 17.6469C30.6178 17.6469 28.1178 19.0587 26.6472 21.2057C26.3236 20.3822 25.9413 19.6175 25.4707 18.9116C27.4119 16.6763 30.2648 15.2939 33.4119 15.2939C34.0589 15.2939 34.5884 15.8234 34.5884 16.4704Z" fill="url(#paint1_linear)"/>
<path d="M24 40C12.9706 40 4 31.0294 4 20C4 8.97059 12.9706 0 24 0C35.0294 0 44 8.97059 44 20C44 31.0294 35.0294 40 24 40ZM24 2.35294C14.2647 2.35294 6.35294 10.2647 6.35294 20C6.35294 29.7353 14.2647 37.6471 24 37.6471C33.7353 37.6471 41.6471 29.7353 41.6471 20C41.6471 10.2647 33.7353 2.35294 24 2.35294Z" fill="url(#paint2_linear)"/>
</g>
<defs>
<filter id="filter0_d" x="0" y="0" width="115" height="48" filterUnits="userSpaceOnUse" color-interpolation-filters="sRGB">
<feFlood flood-opacity="0" result="BackgroundImageFix"/>
<feColorMatrix in="SourceAlpha" type="matrix" values="0 0 0 0 0 0 0 0 0 0 0 0 0 0 0 0 0 0 127 0"/>
<feOffset dy="4"/>
<feGaussianBlur stdDeviation="2"/>
<feColorMatrix type="matrix" values="0 0 0 0 0 0 0 0 0 0 0 0 0 0 0 0 0 0 0.25 0"/>
<feBlend mode="normal" in2="BackgroundImageFix" result="effect1_dropShadow"/>
<feBlend mode="normal" in="SourceGraphic" in2="effect1_dropShadow" result="shape"/>
</filter>
<linearGradient id="paint0_linear" x1="19.2945" y1="15.2939" x2="19.2945" y2="27.0587" gradientUnits="userSpaceOnUse">
<stop stop-color="#BC9CFF"/>
<stop offset="1" stop-color="#8BA4F9"/>
</linearGradient>
<linearGradient id="paint1_linear" x1="30.0295" y1="15.2939" x2="30.0295" y2="21.2057" gradientUnits="userSpaceOnUse">
<stop stop-color="#6FCF97"/>
<stop offset="1" stop-color="#66D2EA"/>
</linearGradient>
<linearGradient id="paint2_linear" x1="24" y1="0" x2="24" y2="40" gradientUnits="userSpaceOnUse">
<stop stop-color="#BC9CFF"/>
<stop offset="1" stop-color="#8BA4F9"/>
</linearGradient>
</defs>
</svg>
